<?xml version="1.0" encoding="utf-8"?>
<!-- Generator: Adobe Illustrator 18.1.1, SVG Export Plug-In . SVG Version: 6.00 Build 0)  -->
<svg version="1.1" id="Слой_1" xmlns="http://www.w3.org/2000/svg" xmlns:xlink="http://www.w3.org/1999/xlink" x="0px" y="0px"
	 viewBox="0 65 200 50" enable-background="new 0 0 200 200" xml:space="preserve">
<g>
	<ellipse cx="178" cy="91.3" rx="9.3" ry="1.9"/>
	<ellipse cx="178" cy="91.3" rx="9.3" ry="1.9"/>
	<path d="M178.8,88.1c0,0-0.1,0-0.1,0c-0.2-1.8-0.5-3.6-1.1-5.3c-0.9-2.8-2.2-5.2-3.9-7.3c-1.8-2.1-3.9-3.7-6.4-4.9
		c-2.6-1.1-5.6-1.8-8.9-1.8c-3.3,0-6.2,0.6-8.6,1.8c-2.5,1.2-4.6,2.8-6.3,4.9c-1.7,2.1-3,4.5-3.8,7.3c-0.6,1.9-1,3.9-1.2,6.1L136,89
		v5.3l2.5,0.1c0.2,2.2,0.6,4.3,1.2,6.3c0.8,2.8,2.1,5.2,3.8,7.3c1.7,2.1,3.8,3.7,6.3,5c2.5,1.2,5.5,1.8,8.8,1.8
		c3.3,0,6.3-0.6,8.8-1.8c2.5-1.2,4.7-2.8,6.3-5c1.7-2.1,3-4.5,3.9-7.3c0.5-1.7,0.9-3.6,1.1-5.5c0,0,0,0,0,0c7,0,12.5-1.6,12.5-3.5
		C191.3,89.7,185.8,88.1,178.8,88.1z M174.8,91.8c0,0.5,0,0.9,0,1.4c-3.6-0.3-6.1-1-6.1-1.8c0-0.8,2.5-1.5,6.1-1.8
		C174.8,90.3,174.8,91,174.8,91.8z M143.5,84.5c0.6-2.4,1.6-4.4,2.9-6.2c1.3-1.8,3-3.2,5-4.3c2-1.1,4.4-1.6,7.2-1.6
		c2.5,0,4.8,0.4,6.8,1.3c2,0.9,3.7,2.2,5.1,3.9c1.4,1.7,2.5,3.7,3.3,6.1c0.4,1.4,0.7,2.9,0.9,4.5l-32,0.7
		C142.8,87.4,143.1,85.9,143.5,84.5z M171,105.3c-1.3,1.8-3,3.2-5,4.2c-2.1,1.1-4.5,1.6-7.3,1.6c-2.8,0-5.3-0.5-7.3-1.6
		c-2.1-1-3.7-2.5-5-4.2c-1.3-1.8-2.3-3.8-2.9-6.2c-0.4-1.6-0.7-3.1-0.8-4.8l32,0.7c-0.1,1.4-0.4,2.7-0.7,4
		C173.2,101.5,172.3,103.5,171,105.3z M178.9,93.3c0-0.5,0.1-1,0.1-1.5c0-0.8,0-1.6-0.1-2.4c4.7,0.1,8.5,0.9,8.5,1.9
		C187.3,92.4,183.6,93.2,178.9,93.3z"/>
	<path d="M133.5,89l-2.5,0.1v0l-14,0.3v4.5l12.5,0.3c-0.1,1.7-0.5,3.4-0.9,5c-0.7,2.4-1.7,4.4-3,6.2c-1.3,1.8-3,3.2-5,4.2
		c-2.1,1.1-4.5,1.6-7.3,1.6c-2.8,0-5.3-0.5-7.3-1.6c-2.1-1-3.7-2.5-5-4.2c-1.3-1.8-2.3-3.8-2.9-6.2c-0.7-2.4-1-4.8-1-7.4
		c0-0.1,0-0.2,0-0.3c0-2.4,0.3-4.8,1-7c0.2-0.9,0.5-1.7,0.8-2.5c0.5-1.3,1.2-2.6,2.1-3.7c1.3-1.8,3-3.2,5-4.3c2-1.1,4.4-1.6,7.2-1.6
		c2.5,0,4.8,0.4,6.8,1.3c2,0.9,3.7,2.2,5.1,3.9c1.1,1.3,1.9,3.4,2.6,4.4h4.3c-0.9-3-2-4.6-3.6-6.5c-1.8-2.1-3.9-3.7-6.4-4.9
		c-2.6-1.1-5.6-1.8-8.9-1.8c-3.3,0-6.2,0.6-8.6,1.8c-2.5,1.2-4.6,2.8-6.3,4.9c-1.5,1.9-2.7,4-3.5,6.4c-0.1,0.3-0.2,0.6-0.3,0.9
		c-0.7,2.2-1.1,4.5-1.3,7L88.1,90c-0.1-2.1-0.5-5.1-1.2-7.4c-0.9-2.8-2.2-5.1-3.9-7.2c-1.8-2.1-3.9-3.6-6.4-4.8
		c-2.6-1.1-5.6-1.7-8.9-1.7c-3.3,0-6.2,0.6-8.6,1.8c-2.5,1.2-4.6,2.8-6.3,4.9c-1.7,2.1-3,4.5-3.8,7.3c-0.8,2.5-1.2,5.1-1.3,7.9
		L9,91.6l38.7,0.8c0,2.5,0.4,4.8,0.9,7.1c0.1,0.4,0.2,0.8,0.3,1.2c0.8,2.8,2.1,5.2,3.8,7.3c1.7,2.1,3.8,3.7,6.3,5
		c2.5,1.2,5.5,1.8,8.8,1.8c3.3,0,6.3-0.6,8.8-1.8c2.5-1.2,4.7-2.8,6.3-5c1.7-2.1,3-4.7,3.9-7.5c0.1-0.4,0.2-0.4,0.3-1.4h-4.2
		c-0.7,2-1.6,4.4-2.8,6c-1.3,1.8-3,3.3-5,4.3c-2.1,1.1-4.5,1.7-7.3,1.7c-2.8,0-5.3-0.5-7.3-1.5c-2.1-1-3.7-2.5-5-4.2
		c-1.3-1.7-2.2-3.6-2.8-5.9c0-0.1-0.1-0.2-0.1-0.3c-0.6-2.1-0.9-4.3-0.9-6.7L93,93.4c0.1,2.6,0.5,5,1.2,7.3c0.8,2.8,2.1,5.2,3.8,7.3
		c1.7,2.1,3.8,3.7,6.3,5c2.5,1.2,5.5,1.8,8.8,1.8c3.3,0,6.3-0.6,8.8-1.8c2.5-1.2,4.7-2.8,6.3-5c1.7-2.1,3-4.5,3.9-7.3
		c0.8-2.7,1.3-5.7,1.3-8.8C133.5,91.7,133.5,89.1,133.5,89z M52.7,84.5c0.6-2.4,1.6-4.4,2.9-6.2c1.3-1.8,3-3.2,5-4.3
		c2-1.1,4.4-1.6,7.2-1.6c2.5,0,4.8,0.4,6.8,1.3s3.7,2.2,5.1,3.9c1.4,1.7,2.5,3.5,3.3,5.8c0.6,2,0.9,4.7,1,6.7l-32.2,0.7
		C51.9,88.6,52.2,86.5,52.7,84.5z"/>
	<g>
		<path d="M9.4,78h0.8v3c0.3-0.6,0.8-0.9,1.5-0.9c0.5,0,0.9,0.2,1.3,0.6s0.5,0.9,0.5,1.4s-0.2,1-0.5,1.4s-0.8,0.6-1.3,0.6
			c-0.3,0-0.6-0.1-0.9-0.2c-0.3-0.2-0.5-0.4-0.7-0.7v0.8H9.4V78z M12.7,82.1c0-0.4-0.1-0.7-0.4-0.9s-0.6-0.4-0.9-0.4
			c-0.3,0-0.6,0.1-0.9,0.4c-0.3,0.3-0.4,0.6-0.4,0.9c0,0.4,0.1,0.7,0.4,0.9s0.6,0.4,0.9,0.4c0.3,0,0.6-0.1,0.9-0.4
			C12.6,82.8,12.7,82.5,12.7,82.1z"/>
		<path d="M13.9,80.2h0.9l1.4,2.1l1-2.1H18l-2.6,5.6h-0.8l1.3-2.7L13.9,80.2z"/>
		<path d="M21.5,78.1h3.3v0.8h-2.5v1.5h2.5v0.8h-2.5v2h2.5v0.8h-3.3V78.1z"/>
		<path d="M25.8,78h0.8v6h-0.8V78z"/>
		<path d="M31.6,82.3h-3.3c0.1,0.4,0.2,0.7,0.5,0.9c0.3,0.2,0.5,0.3,0.8,0.3c0.5,0,0.8-0.2,1.2-0.6l0.6,0.4c-0.4,0.6-1,0.9-1.8,0.9
			c-0.6,0-1-0.2-1.4-0.6c-0.4-0.4-0.6-0.9-0.6-1.5c0-0.5,0.2-1,0.6-1.4s0.9-0.6,1.4-0.6c0.6,0,1,0.2,1.4,0.6
			C31.4,81.1,31.6,81.6,31.6,82.3z M28.4,81.6h2.3c-0.3-0.5-0.6-0.8-1.2-0.8C29.1,80.8,28.7,81.1,28.4,81.6z"/>
		<path d="M32.4,84.1v-3.8h0.8v0.6c0.2-0.3,0.4-0.4,0.6-0.6s0.4-0.2,0.6-0.2c0.3,0,0.6,0.1,0.9,0.3c0.2,0.2,0.4,0.5,0.4,0.8v2.8
			h-0.8v-2.5c0-0.2-0.1-0.4-0.2-0.5c-0.1-0.1-0.3-0.2-0.5-0.2c-0.3,0-0.5,0.1-0.7,0.3c-0.2,0.2-0.3,0.5-0.3,0.8v2.1H32.4z"/>
		<path d="M40,80.2h0.8v3.8H40v-0.8c-0.4,0.6-0.9,0.9-1.5,0.9c-0.5,0-0.9-0.2-1.3-0.6c-0.4-0.4-0.5-0.9-0.5-1.4c0-0.5,0.2-1,0.5-1.4
			c0.4-0.4,0.8-0.6,1.3-0.6c0.3,0,0.6,0.1,0.9,0.2c0.3,0.2,0.5,0.4,0.6,0.6V80.2z M40.1,82.1c0-0.4-0.1-0.7-0.4-0.9
			c-0.3-0.3-0.6-0.4-0.9-0.4c-0.3,0-0.6,0.1-0.9,0.4c-0.3,0.2-0.4,0.5-0.4,0.9c0,0.4,0.1,0.7,0.4,0.9c0.2,0.3,0.6,0.4,0.9,0.4
			c0.4,0,0.7-0.1,0.9-0.4C39.9,82.8,40.1,82.5,40.1,82.1z"/>
	</g>
</g>
</svg>
