<svg width="375" height="190" viewBox="0 0 375 190" fill="none" xmlns="http://www.w3.org/2000/svg">
<rect x="375.5" width="188" height="375" transform="rotate(90 375.5 0)" fill="#ECECF4"/>
<path d="M219.5 63.2224C236.897 63.2224 251 77.3254 251 94.7224V126.222H188V94.7224C188 77.3254 202.103 63.2224 219.5 63.2224Z" fill="#111747"/>
<rect x="251" y="126.222" width="63" height="63" transform="rotate(90 251 126.222)" fill="#111747"/>
<path d="M281.5 126.222C298.897 126.222 313 140.325 313 157.722C313 175.119 298.897 189.222 281.5 189.222H250V126.598C250 126.391 250.168 126.222 250.376 126.222H281.5Z" fill="#FF87A2"/>
<path d="M32.5 126.222C49.897 126.222 64 140.325 64 157.722C64 175.119 49.897 189.222 32.5 189.222H1L1 126.222H32.5Z" fill="#FF87A2"/>
<path d="M185.772 63.2224C187.555 63.2224 189 64.6675 189 66.4501V126.222H157.5C140.103 126.222 126 112.119 126 94.7224C126 77.3254 140.103 63.2224 157.5 63.2224H185.772Z" fill="#2CB9B0"/>
<path fill-rule="evenodd" clip-rule="evenodd" d="M189 189.222V126.222C206.121 126.222 220 140.325 220 157.722C220 175.119 206.121 189.222 189 189.222Z" fill="#FE5E33"/>
<rect x="189" y="126.222" width="63" height="63" transform="rotate(90 189 126.222)" fill="#FFC641"/>
<path d="M127 126.222V189.222H95.5C78.103 189.222 64 175.119 64 157.722C64 140.325 78.103 126.222 95.5 126.222H127Z" fill="#FFC641"/>
<rect x="63.5" width="63" height="63" transform="rotate(90 63.5 0)" fill="#111747"/>
<rect x="313" y="0.222412" width="63" height="63" transform="rotate(90 313 0.222412)" fill="#2CB9B0"/>
<rect x="189" y="0.222412" width="63" height="63" transform="rotate(90 189 0.222412)" fill="#FE5E33"/>
<rect x="251" y="0.222412" width="63" height="63" rx="31.5" transform="rotate(90 251 0.222412)" fill="#FF87A2"/>
<path fill-rule="evenodd" clip-rule="evenodd" d="M251 63.2224V126.222C233.879 126.222 220 112.119 220 94.7224C220 77.3254 233.879 63.2224 251 63.2224Z" fill="#FF87A2"/>
<rect x="313" y="63.2224" width="63" height="63" transform="rotate(90 313 63.2224)" fill="#FF87A2"/>
<path fill-rule="evenodd" clip-rule="evenodd" d="M313 126.222V63.2224C330.121 63.2224 344 77.3254 344 94.7224C344 112.119 330.121 126.222 313 126.222Z" fill="#FF87A2"/>
<path fill-rule="evenodd" clip-rule="evenodd" d="M376 126.222C358.879 126.222 345 112.343 345 95.2224C362.121 95.2224 376 109.102 376 126.222Z" fill="#06818E"/>
<path fill-rule="evenodd" clip-rule="evenodd" d="M313 63.2224C330.121 63.2224 344 77.1016 344 94.2224C326.879 94.2224 313 80.3432 313 63.2224Z" fill="#111747"/>
<path fill-rule="evenodd" clip-rule="evenodd" d="M254 110.722C259.489 101.456 269.749 95.2224 281.5 95.2224C293.251 95.2224 303.511 101.456 309 110.722C303.511 119.988 293.251 126.222 281.5 126.222C269.749 126.222 259.489 119.988 254 110.722Z" fill="white"/>
<path fill-rule="evenodd" clip-rule="evenodd" d="M313 63.2224C295.879 63.2224 282 49.3432 282 32.2224C299.121 32.2224 313 46.1016 313 63.2224Z" fill="#FFC641"/>
<path fill-rule="evenodd" clip-rule="evenodd" d="M126 63.2224L189 63.2224C189 80.3432 174.897 94.2224 157.5 94.2224C140.103 94.2224 126 80.3432 126 63.2224Z" fill="#FE5E33"/>
<path fill-rule="evenodd" clip-rule="evenodd" d="M126 0.222412C143.121 0.222412 157 14.1016 157 31.2224C139.879 31.2224 126 17.3432 126 0.222412Z" fill="#2CB9B0"/>
<rect x="376" y="0.222412" width="63" height="63" rx="31.5" transform="rotate(90 376 0.222412)" fill="#06818E"/>
<path fill-rule="evenodd" clip-rule="evenodd" d="M252 0.222412C269.121 0.222412 283 14.1016 283 31.2224C265.879 31.2224 252 17.3432 252 0.222412Z" fill="#06818E"/>
<path fill-rule="evenodd" clip-rule="evenodd" d="M68 47.4724C73.4892 38.057 83.7491 31.7224 95.5 31.7224C107.251 31.7224 117.511 38.057 123 47.4724C117.511 56.8878 107.251 63.2224 95.5 63.2224C83.7491 63.2224 73.4892 56.8878 68 47.4724ZM68 15.9724C73.4892 6.55704 83.7491 0.222412 95.5 0.222412C107.251 0.222412 117.511 6.55704 123 15.9724C117.511 25.3878 107.251 31.7224 95.5 31.7224C83.7491 31.7224 73.4892 25.3878 68 15.9724Z" fill="#2CB9B0"/>
<rect x="127" y="126.222" width="63" height="63" rx="31.5" transform="rotate(90 127 126.222)" fill="#2CB9B0"/>
<rect x="157" y="94.2224" width="63" height="63" rx="31.5" transform="rotate(90 157 94.2224)" fill="white"/>
<rect x="189" y="126.222" width="63" height="63" rx="31.5" transform="rotate(90 189 126.222)" fill="#FE5E33"/>
<path fill-rule="evenodd" clip-rule="evenodd" d="M235 157.722C235 166.283 228.06 173.222 219.5 173.222C210.94 173.222 204 166.283 204 157.722C204 149.162 210.94 142.222 219.5 142.222C228.06 142.222 235 149.162 235 157.722Z" fill="#FFC641"/>
<path fill-rule="evenodd" clip-rule="evenodd" d="M235 31.7224C235 40.2828 228.06 47.2224 219.5 47.2224C210.94 47.2224 204 40.2828 204 31.7224C204 23.162 210.94 16.2224 219.5 16.2224C228.06 16.2224 235 23.162 235 31.7224Z" fill="#111747"/>
<path fill-rule="evenodd" clip-rule="evenodd" d="M111 94.7224C111 103.283 104.06 110.222 95.5 110.222C86.9396 110.222 80 103.283 80 94.7224C80 86.162 86.9396 79.2224 95.5 79.2224C104.06 79.2224 111 86.162 111 94.7224Z" fill="#2CB9B0"/>
<path fill-rule="evenodd" clip-rule="evenodd" d="M111 31.7224C111 40.2828 104.06 47.2224 95.5 47.2224C86.9396 47.2224 80 40.2828 80 31.7224C80 23.162 86.9396 16.2224 95.5 16.2224C104.06 16.2224 111 23.162 111 31.7224Z" fill="#FE5E33"/>
<path fill-rule="evenodd" clip-rule="evenodd" d="M173 94.7224C173 103.283 166.06 110.222 157.5 110.222C148.94 110.222 142 103.283 142 94.7224C142 86.162 148.94 79.2224 157.5 79.2224C166.06 79.2224 173 86.162 173 94.7224Z" fill="#111747"/>
<path d="M376 126.222V189.222H344.5C327.103 189.222 313 175.119 313 157.722C313 140.325 327.103 126.222 344.5 126.222H376Z" fill="#06818E"/>
<path fill-rule="evenodd" clip-rule="evenodd" d="M345 156.222C362.121 156.222 376 170.102 376 187.222C358.879 187.222 345 173.343 345 156.222Z" fill="#FE5E33"/>
<rect x="63.5" y="63" width="63" height="63" transform="rotate(90 63.5 63)" fill="#FE5E33"/>
<path fill-rule="evenodd" clip-rule="evenodd" d="M63 126.222V63.2224C80.1208 63.2224 94 77.3254 94 94.7224C94 112.119 80.1208 126.222 63 126.222Z" fill="#FE5E33"/>
<path fill-rule="evenodd" clip-rule="evenodd" d="M33 32.2224C50.1208 32.2224 64 46.1016 64 63.2224C46.8792 63.2224 33 49.3432 33 32.2224Z" fill="#2CB9B0"/>
<path fill-rule="evenodd" clip-rule="evenodd" d="M344 0.222412C361.397 0.222412 375.5 14.3254 375.5 31.7224C358.103 31.7224 344 17.6194 344 0.222412ZM375.5 31.7224C375.5 49.1194 361.397 63.2224 344 63.2224C344 45.8254 358.103 31.7224 375.5 31.7224Z" fill="#111747"/>
<path fill-rule="evenodd" clip-rule="evenodd" d="M157 189.222C139.603 189.222 125.5 175.119 125.5 157.722C142.897 157.722 157 171.825 157 189.222ZM94 126.222C111.397 126.222 125.5 140.325 125.5 157.722C108.103 157.722 94 143.619 94 126.222ZM125.5 157.722C125.5 140.325 139.603 126.222 157 126.222C157 143.619 142.897 157.722 125.5 157.722ZM125.5 157.722C125.5 175.119 111.397 189.222 94 189.222C94 171.825 108.103 157.722 125.5 157.722Z" fill="#2CB9B0"/>
</svg>
