<svg width="183" height="46" viewBox="0 0 183 46" xmlns="http://www.w3.org/2000/svg">
<path d="M169.8 19.3H169.7C169.5 17.5 169.2 15.7 168.6 14C167.7 11.2 166.4 8.8 164.7 6.7C162.9 4.6 160.8 3 158.3 1.8C155.7 0.699995 152.7 0 149.4 0C146.1 0 143.2 0.599995 140.8 1.8C138.3 3 136.2 4.6 134.5 6.7C132.8 8.8 131.5 11.2 130.7 14C130.1 15.9 129.7 17.9 129.5 20.1L127 20.2V25.5L129.5 25.6C129.7 27.8 130.1 29.9 130.7 31.9C131.5 34.7 132.8 37.1 134.5 39.2C136.2 41.3 138.3 42.9 140.8 44.2C143.3 45.4 146.3 46 149.6 46C152.9 46 155.9 45.4 158.4 44.2C160.9 43 163.1 41.4 164.7 39.2C166.4 37.1 167.7 34.7 168.6 31.9C169.1 30.2 169.5 28.3 169.7 26.4C176.7 26.4 182.2 24.8 182.2 22.9C182.3 20.9 176.8 19.3 169.8 19.3ZM165.8 23C165.8 23.5 165.8 23.9 165.8 24.4C162.2 24.1 159.7 23.4 159.7 22.6C159.7 21.8 162.2 21.1 165.8 20.8C165.8 21.5 165.8 22.2 165.8 23ZM134.5 15.7C135.1 13.3 136.1 11.3 137.4 9.5C138.7 7.7 140.4 6.3 142.4 5.2C144.4 4.1 146.8 3.6 149.6 3.6C152.1 3.6 154.4 3.99999 156.4 4.89999C158.4 5.79999 160.1 7.1 161.5 8.8C162.9 10.5 164 12.5 164.8 14.9C165.2 16.3 165.5 17.8 165.7 19.4L133.7 20.1C133.8 18.6 134.1 17.1 134.5 15.7ZM162 36.5C160.7 38.3 159 39.7 157 40.7C154.9 41.8 152.5 42.3 149.7 42.3C146.9 42.3 144.4 41.8 142.4 40.7C140.3 39.7 138.7 38.2 137.4 36.5C136.1 34.7 135.1 32.7 134.5 30.3C134.1 28.7 133.8 27.2 133.7 25.5L165.7 26.2C165.6 27.6 165.3 28.9 165 30.2C164.2 32.7 163.3 34.7 162 36.5ZM169.9 24.5C169.9 24 170 23.5 170 23C170 22.2 170 21.4 169.9 20.6C174.6 20.7 178.4 21.5 178.4 22.5C178.3 23.6 174.6 24.4 169.9 24.5Z"/>
<path d="M124.5 20.2L122 20.3L108 20.6V25.1L120.5 25.4C120.4 27.1 120 28.8 119.6 30.4C118.9 32.8 117.9 34.8 116.6 36.6C115.3 38.4 113.6 39.8 111.6 40.8C109.5 41.9 107.1 42.4 104.3 42.4C101.5 42.4 99 41.9 97 40.8C94.9 39.8 93.3 38.3 92 36.6C90.7 34.8 89.7 32.8 89.1 30.4C88.4 28 88.1 25.6 88.1 23C88.1 22.9 88.1 22.8 88.1 22.7C88.1 20.3 88.4 17.9 89.1 15.7C89.3 14.8 89.6 14 89.9 13.2C90.4 11.9 91.1 10.6 92 9.5C93.3 7.7 95 6.3 97 5.2C99 4.1 101.4 3.6 104.2 3.6C106.7 3.6 109 3.99999 111 4.89999C113 5.79999 114.7 7.1 116.1 8.8C117.2 10.1 118 12.2 118.7 13.2H123C122.1 10.2 121 8.6 119.4 6.7C117.6 4.6 115.5 3 113 1.8C110.4 0.699995 107.4 0 104.1 0C100.8 0 97.9 0.599995 95.5 1.8C93 3 90.9 4.6 89.2 6.7C87.7 8.6 86.5 10.7 85.7 13.1C85.6 13.4 85.5 13.7 85.4 14C84.7 16.2 84.3 18.5 84.1 21L79.1 21.2C79 19.1 78.6 16.1 77.9 13.8C77 11 75.7 8.7 74 6.6C72.2 4.5 70.1 3 67.6 1.8C65 0.699995 62 0.0999985 58.7 0.0999985C55.4 0.0999985 52.5 0.699994 50.1 1.89999C47.6 3.09999 45.5 4.7 43.8 6.8C42.1 8.9 40.8 11.3 40 14.1C39.2 16.6 38.8 19.2 38.7 22L0 22.8L38.7 23.6C38.7 26.1 39.1 28.4 39.6 30.7C39.7 31.1 39.8 31.5 39.9 31.9C40.7 34.7 42 37.1 43.7 39.2C45.4 41.3 47.5 42.9 50 44.2C52.5 45.4 55.5 46 58.8 46C62.1 46 65.1 45.4 67.6 44.2C70.1 43 72.3 41.4 73.9 39.2C75.6 37.1 76.9 34.5 77.8 31.7C77.9 31.3 78 31.3 78.1 30.3H73.9C73.2 32.3 72.3 34.7 71.1 36.3C69.8 38.1 68.1 39.6 66.1 40.6C64 41.7 61.6 42.3 58.8 42.3C56 42.3 53.5 41.8 51.5 40.8C49.4 39.8 47.8 38.3 46.5 36.6C45.2 34.9 44.3 33 43.7 30.7C43.7 30.6 43.6 30.5 43.6 30.4C43 28.3 42.7 26.1 42.7 23.7L84 24.6C84.1 27.2 84.5 29.6 85.2 31.9C86 34.7 87.3 37.1 89 39.2C90.7 41.3 92.8 42.9 95.3 44.2C97.8 45.4 100.8 46 104.1 46C107.4 46 110.4 45.4 112.9 44.2C115.4 43 117.6 41.4 119.2 39.2C120.9 37.1 122.2 34.7 123.1 31.9C123.9 29.2 124.4 26.2 124.4 23.1C124.5 22.9 124.5 20.3 124.5 20.2ZM43.7 15.7C44.3 13.3 45.3 11.3 46.6 9.5C47.9 7.7 49.6 6.3 51.6 5.2C53.6 4.1 56 3.6 58.8 3.6C61.3 3.6 63.6 3.99999 65.6 4.89999C67.6 5.79999 69.3 7.1 70.7 8.8C72.1 10.5 73.2 12.3 74 14.6C74.6 16.6 74.9 19.3 75 21.3L42.8 22C42.9 19.8 43.2 17.7 43.7 15.7Z"/>
<path d="M0.399994 9.2H1.19999V12.2C1.49999 11.6 1.99999 11.3 2.69999 11.3C3.19999 11.3 3.59999 11.5 3.99999 11.9C4.39999 12.3 4.49999 12.8 4.49999 13.3C4.49999 13.8 4.29999 14.3 3.99999 14.7C3.69999 15.1 3.19999 15.3 2.69999 15.3C2.39999 15.3 2.09999 15.2 1.79999 15.1C1.49999 14.9 1.29999 14.7 1.09999 14.4V15.2H0.399994V9.2ZM3.69999 13.3C3.69999 12.9 3.59999 12.6 3.29999 12.4C2.99999 12.2 2.69999 12 2.39999 12C2.09999 12 1.79999 12.1 1.49999 12.4C1.19999 12.7 1.09999 13 1.09999 13.3C1.09999 13.7 1.19999 14 1.49999 14.2C1.79999 14.4 2.09999 14.6 2.39999 14.6C2.69999 14.6 2.99999 14.5 3.29999 14.2C3.59999 14 3.69999 13.7 3.69999 13.3Z"/>
<path d="M4.89999 11.4H5.79999L7.2 13.5L8.2 11.4H8.99999L6.39999 17H5.59999L6.89999 14.3L4.89999 11.4Z"/>
<path d="M12.5 9.3H15.8V10.1H13.3V11.6H15.8V12.4H13.3V14.4H15.8V15.2H12.5V9.3Z"/>
<path d="M16.8 9.2H17.6V15.2H16.8V9.2Z"/>
<path d="M22.6 13.5H19.3C19.4 13.9 19.5 14.2 19.8 14.4C20.1 14.6 20.3 14.7 20.6 14.7C21.1 14.7 21.4 14.5 21.8 14.1L22.4 14.5C22 15.1 21.4 15.4 20.6 15.4C20 15.4 19.6 15.2 19.2 14.8C18.8 14.4 18.6 13.9 18.6 13.3C18.6 12.8 18.8 12.3 19.2 11.9C19.6 11.5 20.1 11.3 20.6 11.3C21.2 11.3 21.6 11.5 22 11.9C22.4 12.3 22.6 12.8 22.6 13.5ZM19.4 12.8H21.7C21.4 12.3 21.1 12 20.5 12C20.1 12 19.7 12.3 19.4 12.8Z"/>
<path d="M23.4 15.3V11.5H24.2V12.1C24.4 11.8 24.6 11.7 24.8 11.5C25 11.3 25.2 11.3 25.4 11.3C25.7 11.3 26 11.4 26.3 11.6C26.5 11.8 26.7 12.1 26.7 12.4V15.2H25.9V12.7C25.9 12.5 25.8 12.3 25.7 12.2C25.6 12.1 25.4 12 25.2 12C24.9 12 24.7 12.1 24.5 12.3C24.3 12.5 24.2 12.8 24.2 13.1V15.2H23.4V15.3Z"/>
<path d="M31 11.4H31.8V15.2H31V14.4C30.6 15 30.1 15.3 29.5 15.3C29 15.3 28.6 15.1 28.2 14.7C27.8 14.3 27.7 13.8 27.7 13.3C27.7 12.8 27.9 12.3 28.2 11.9C28.6 11.5 29 11.3 29.5 11.3C29.8 11.3 30.1 11.4 30.4 11.5C30.7 11.7 30.9 11.9 31 12.1V11.4ZM31.1 13.3C31.1 12.9 31 12.6 30.7 12.4C30.4 12.1 30.1 12 29.8 12C29.5 12 29.2 12.1 28.9 12.4C28.6 12.6 28.5 12.9 28.5 13.3C28.5 13.7 28.6 14 28.9 14.2C29.1 14.5 29.5 14.6 29.8 14.6C30.2 14.6 30.5 14.5 30.7 14.2C30.9 14 31.1 13.7 31.1 13.3Z"/>
</svg>
