<svg width="46" height="183" viewBox="0 0 46 183" xmlns="http://www.w3.org/2000/svg">
<path d="M19.3 13.2V13.3C17.5 13.5 15.7 13.8 14 14.4C11.2 15.3 8.8 16.6 6.7 18.3C4.6 20.1 3 22.2 1.8 24.7C0.699995 27.3 0 30.3 0 33.6C0 36.9 0.599995 39.8 1.8 42.2C3 44.7 4.6 46.8 6.7 48.5C8.8 50.2 11.2 51.5 14 52.3C15.9 52.9 17.9 53.3 20.1 53.5L20.2 56H25.5L25.6 53.5C27.8 53.3 29.9 52.9 31.9 52.3C34.7 51.5 37.1 50.2 39.2 48.5C41.3 46.8 42.9 44.7 44.2 42.2C45.4 39.7 46 36.7 46 33.4C46 30.1 45.4 27.1 44.2 24.6C43 22.1 41.4 19.9 39.2 18.3C37.1 16.6 34.7 15.3 31.9 14.4C30.2 13.9 28.3 13.5 26.4 13.3C26.4 6.3 24.8 0.800003 22.9 0.800003C20.9 0.700005 19.3 6.2 19.3 13.2ZM23 17.2C23.5 17.2 23.9 17.2 24.4 17.2C24.1 20.8 23.4 23.3 22.6 23.3C21.8 23.3 21.1 20.8 20.8 17.2C21.5 17.2 22.2 17.2 23 17.2ZM15.7 48.5C13.3 47.9 11.3 46.9 9.5 45.6C7.7 44.3 6.3 42.6 5.2 40.6C4.1 38.6 3.6 36.2 3.6 33.4C3.6 30.9 3.99999 28.6 4.89999 26.6C5.79999 24.6 7.1 22.9 8.8 21.5C10.5 20.1 12.5 19 14.9 18.2C16.3 17.8 17.8 17.5 19.4 17.3L20.1 49.3C18.6 49.2 17.1 48.9 15.7 48.5ZM36.5 21C38.3 22.3 39.7 24 40.7 26C41.8 28.1 42.3 30.5 42.3 33.3C42.3 36.1 41.8 38.6 40.7 40.6C39.7 42.7 38.2 44.3 36.5 45.6C34.7 46.9 32.7 47.9 30.3 48.5C28.7 48.9 27.2 49.2 25.5 49.3L26.2 17.3C27.6 17.4 28.9 17.7 30.2 18C32.7 18.8 34.7 19.7 36.5 21ZM24.5 13.1C24 13.1 23.5 13 23 13C22.2 13 21.4 13 20.6 13.1C20.7 8.40001 21.5 4.60001 22.5 4.60001C23.6 4.7 24.4 8.40001 24.5 13.1Z"/>
<path d="M20.2 58.5L20.3 61L20.6 75H25.1L25.4 62.5C27.1 62.6 28.8 63 30.4 63.4C32.8 64.1 34.8 65.1 36.6 66.4C38.4 67.7 39.8 69.4 40.8 71.4C41.9 73.5 42.4 75.9 42.4 78.7C42.4 81.5 41.9 84 40.8 86C39.8 88.1 38.3 89.7 36.6 91C34.8 92.3 32.8 93.3 30.4 93.9C28 94.6 25.6 94.9 23 94.9C22.9 94.9 22.8 94.9 22.7 94.9C20.3 94.9 17.9 94.6 15.7 93.9C14.8 93.7 14 93.4 13.2 93.1C11.9 92.6 10.6 91.9 9.5 91C7.7 89.7 6.3 88 5.2 86C4.1 84 3.6 81.6 3.6 78.8C3.6 76.3 3.99999 74 4.89999 72C5.79999 70 7.1 68.3 8.8 66.9C10.1 65.8 12.2 65 13.2 64.3V60C10.2 60.9 8.6 62 6.7 63.6C4.6 65.4 3 67.5 1.8 70C0.699995 72.6 0 75.6 0 78.9C0 82.2 0.599995 85.1 1.8 87.5C3 90 4.6 92.1 6.7 93.8C8.6 95.3 10.7 96.5 13.1 97.3C13.4 97.4 13.7 97.5 14 97.6C16.2 98.3 18.5 98.7 21 98.9L21.2 103.9C19.1 104 16.1 104.4 13.8 105.1C11 106 8.7 107.3 6.6 109C4.5 110.8 3 112.9 1.8 115.4C0.699995 118 0.0999985 121 0.0999985 124.3C0.0999985 127.6 0.699994 130.5 1.89999 132.9C3.09999 135.4 4.7 137.5 6.8 139.2C8.9 140.9 11.3 142.2 14.1 143C16.6 143.8 19.2 144.2 22 144.3L22.8 183L23.6 144.3C26.1 144.3 28.4 143.9 30.7 143.4C31.1 143.3 31.5 143.2 31.9 143.1C34.7 142.3 37.1 141 39.2 139.3C41.3 137.6 42.9 135.5 44.2 133C45.4 130.5 46 127.5 46 124.2C46 120.9 45.4 117.9 44.2 115.4C43 112.9 41.4 110.7 39.2 109.1C37.1 107.4 34.5 106.1 31.7 105.2C31.3 105.1 31.3 105 30.3 104.9V109.1C32.3 109.8 34.7 110.7 36.3 111.9C38.1 113.2 39.6 114.9 40.6 116.9C41.7 119 42.3 121.4 42.3 124.2C42.3 127 41.8 129.5 40.8 131.5C39.8 133.6 38.3 135.2 36.6 136.5C34.9 137.8 33 138.7 30.7 139.3C30.6 139.3 30.5 139.4 30.4 139.4C28.3 140 26.1 140.3 23.7 140.3L24.6 99C27.2 98.9 29.6 98.5 31.9 97.8C34.7 97 37.1 95.7 39.2 94C41.3 92.3 42.9 90.2 44.2 87.7C45.4 85.2 46 82.2 46 78.9C46 75.6 45.4 72.6 44.2 70.1C43 67.6 41.4 65.4 39.2 63.8C37.1 62.1 34.7 60.8 31.9 59.9C29.2 59.1 26.2 58.6 23.1 58.6C22.9 58.5 20.3 58.5 20.2 58.5ZM15.7 139.3C13.3 138.7 11.3 137.7 9.5 136.4C7.7 135.1 6.3 133.4 5.2 131.4C4.1 129.4 3.6 127 3.6 124.2C3.6 121.7 3.99999 119.4 4.89999 117.4C5.79999 115.4 7.1 113.7 8.8 112.3C10.5 110.9 12.3 109.8 14.6 109C16.6 108.4 19.3 108.1 21.3 108L22 140.2C19.8 140.1 17.7 139.8 15.7 139.3Z"/>
<path d="M9.2 182.6V181.8H12.2C11.6 181.5 11.3 181 11.3 180.3C11.3 179.8 11.5 179.4 11.9 179C12.3 178.6 12.8 178.5 13.3 178.5C13.8 178.5 14.3 178.7 14.7 179C15.1 179.3 15.3 179.8 15.3 180.3C15.3 180.6 15.2 180.9 15.1 181.2C14.9 181.5 14.7 181.7 14.4 181.9H15.2V182.6H9.2ZM13.3 179.3C12.9 179.3 12.6 179.4 12.4 179.7C12.2 180 12 180.3 12 180.6C12 180.9 12.1 181.2 12.4 181.5C12.7 181.8 13 181.9 13.3 181.9C13.7 181.9 14 181.8 14.2 181.5C14.4 181.2 14.6 180.9 14.6 180.6C14.6 180.3 14.5 180 14.2 179.7C14 179.4 13.7 179.3 13.3 179.3Z" />
<path d="M11.4 178.1V177.2L13.5 175.8L11.4 174.8V174L17 176.6V177.4L14.3 176.1L11.4 178.1Z" />
<path d="M9.29999 170.5V167.2H10.1V169.7H11.6V167.2H12.4V169.7H14.4V167.2H15.2V170.5H9.29999Z" />
<path d="M9.2 166.2V165.4H15.2V166.2H9.2Z" fill="white"/>
<path d="M13.5 160.4V163.7C13.9 163.6 14.2 163.5 14.4 163.2C14.6 162.9 14.7 162.7 14.7 162.4C14.7 161.9 14.5 161.6 14.1 161.2L14.5 160.6C15.1 161 15.4 161.6 15.4 162.4C15.4 163 15.2 163.4 14.8 163.8C14.4 164.2 13.9 164.4 13.3 164.4C12.8 164.4 12.3 164.2 11.9 163.8C11.5 163.4 11.3 162.9 11.3 162.4C11.3 161.8 11.5 161.4 11.9 161C12.3 160.6 12.8 160.4 13.5 160.4ZM12.8 163.6V161.3C12.3 161.6 12 161.9 12 162.5C12 162.9 12.3 163.3 12.8 163.6Z"/>
<path d="M15.3 159.6H11.5V158.8H12.1C11.8 158.6 11.7 158.4 11.5 158.2C11.3 158 11.3 157.8 11.3 157.6C11.3 157.3 11.4 157 11.6 156.7C11.8 156.5 12.1 156.3 12.4 156.3H15.2V157.1H12.7C12.5 157.1 12.3 157.2 12.2 157.3C12.1 157.4 12 157.6 12 157.8C12 158.1 12.1 158.3 12.3 158.5C12.5 158.7 12.8 158.8 13.1 158.8H15.2V159.6H15.3Z"/>
<path d="M11.4 152V151.2H15.2V152H14.4C15 152.4 15.3 152.9 15.3 153.5C15.3 154 15.1 154.4 14.7 154.8C14.3 155.2 13.8 155.3 13.3 155.3C12.8 155.3 12.3 155.1 11.9 154.8C11.5 154.4 11.3 154 11.3 153.5C11.3 153.2 11.4 152.9 11.5 152.6C11.7 152.3 11.9 152.1 12.1 152H11.4ZM13.3 151.9C12.9 151.9 12.6 152 12.4 152.3C12.1 152.6 12 152.9 12 153.2C12 153.5 12.1 153.8 12.4 154.1C12.6 154.4 12.9 154.5 13.3 154.5C13.7 154.5 14 154.4 14.2 154.1C14.5 153.9 14.6 153.5 14.6 153.2C14.6 152.8 14.5 152.5 14.2 152.3C14 152.1 13.7 151.9 13.3 151.9Z"/>
</svg>
